<svg width="33" height="47" viewBox="0 0 33 47" fill="none" xmlns="http://www.w3.org/2000/svg">
<path d="M32.0002 11.7865C30.0164 12.3785 29.6896 12.4615 26.6855 12.3459C23.2774 12.2147 20.8503 8.7655 20.8503 8.7655M19.0168 7.77419C15.6936 6.17228 14.3735 5.31267 14.0938 4.02596C13.3665 -0.337662 18.1925 -0.803418 20.9189 1.56442" stroke="#DCCFBB" stroke-width="0.3" stroke-linecap="round"/>
<path d="M17.3984 13.9124L18.7969 14.3596L20.3633 14.8635L20.8115 15.7024L18.6855 15.1428L18.6299 15.2551L20.9229 15.926L21.4268 16.8215L19.6367 16.3176L19.5801 16.4299L21.5391 17.1565L21.9863 17.9963L20.1963 17.5481L20.1396 17.6604L22.0977 18.3313L22.5459 19.1711L20.3076 18.6116L20.252 18.7239L22.7139 19.5071L23.1055 20.2903L20.084 19.5071L20.0283 19.6184L23.2725 20.7932L23.6641 21.4651L19.8047 20.4016L19.748 20.5696L23.8887 22.0237V22.5276L19.5801 21.2971L19.4688 21.5208L23.8887 23.0315L23.7764 23.5344L19.2451 22.2483L19.1328 22.3596L23.6641 23.9817L23.4971 24.4856L18.9648 23.1428L18.8535 23.3108L23.3848 24.8772L23.2168 25.3811L18.7412 24.094L18.6299 24.2063L23.1055 25.884L22.9375 26.3313L18.4053 24.9895L18.2939 25.1008L22.7695 26.7229L22.6855 26.9475L22.6016 27.1711L18.126 25.884L18.0137 25.9963L22.4893 27.6184L22.3223 28.1223L6.60156 23.3108L6.76953 22.8635L11.4688 24.094L11.5811 23.926L6.9375 22.3596L7.04883 21.968L11.748 23.1985L11.8604 22.9749L7.2168 21.4651L7.38477 20.9055L12.084 22.2483L12.1396 22.0803L7.49707 20.5139L7.66406 20.01L12.3643 21.2971L12.4199 21.1848L7.83203 19.5071L7.94434 19.1711L12.6436 20.4016L12.6992 20.2336L8.05566 18.6672L8.22363 18.22L12.9229 19.4504L12.9795 19.3391L8.3916 17.7727L8.72754 17.2688L13.2031 18.6116L13.3145 18.3879L9.23047 16.9329L9.79004 16.5413L13.5391 17.6604L13.6504 17.4924L10.2383 16.262L10.9648 15.926L13.874 16.7649L14.042 16.5979L11.4131 15.5901L12.084 15.2551L14.5459 15.9817L14.7139 15.8147L12.5879 14.9749L13.3711 14.5276L15.3291 15.1985L15.4404 15.0315L13.6504 14.4153L14.4336 13.9124L16.4473 14.6956L16.6152 14.5833L14.8809 13.8L15.6084 13.3528L17.3984 13.9124ZM16.585 16.9485C15.992 16.9196 15.5263 17.0684 15.1904 17.3303C14.8551 17.592 14.6562 17.9608 14.5859 18.3596C14.4461 19.1544 14.8135 20.0786 15.6348 20.5481L15.6846 20.4612L15.6348 20.5491L15.6475 20.554L16.207 20.7776L16.2197 20.7834L16.2344 20.7844C17.6369 20.9274 18.5698 20.3259 18.8623 19.5159C19.1555 18.7038 18.7865 17.7324 17.6875 17.1829H17.6865L17.6846 17.1809C17.6826 17.1799 17.6794 17.1787 17.6758 17.177C17.6685 17.1735 17.6579 17.1683 17.6445 17.1624C17.6178 17.1504 17.5793 17.1346 17.5322 17.1165C17.4378 17.0802 17.3061 17.0355 17.1592 17.0061C17.0137 16.977 16.8691 16.9635 16.7617 16.9563C16.7079 16.9527 16.6625 16.9504 16.6309 16.9495C16.615 16.949 16.6024 16.9486 16.5938 16.9485H16.585Z" fill="#DCCFBB"/>
<path fill-rule="evenodd" clip-rule="evenodd" d="M19.2962 45.2969C18.569 46.9752 16.4431 46.8633 16.1634 46.7514L1.28232 42.22C1.28232 42.22 0.94666 42.1081 0.387219 41.4927C-0.172223 40.8773 -0.00855429 39.0673 0.159417 38.4717C0.327389 37.8762 6.3776 17.3652 6.92862 16.262C7.47963 15.1589 14.937 11.2114 15.3242 11.2271C15.7114 11.2428 19.4641 12.5138 19.4641 12.5138C19.4641 12.5138 21.6459 13.1292 22.0375 13.4648C22.4291 13.8005 26.1214 20.8494 26.1214 22.0802C26.1214 23.311 19.2962 45.2969 19.2962 45.2969ZM14.5454 45.1134C14.797 45.2161 17.5835 46.3188 18.2377 44.7777C18.2377 44.7777 24.6713 23.519 24.8391 22.4002C25.0069 21.2813 21.499 14.7084 21.1468 14.4002C20.7945 14.092 17.7834 13.2254 17.7834 13.2254C17.7834 13.2254 15.6643 12.4981 15.3846 12.5138C15.1049 12.5295 8.22375 16.4142 8.05592 16.7498C7.88809 17.0855 1.54969 37.5735 1.3986 38.1204C1.24751 38.6673 0.839431 40.2406 1.34265 40.8057C1.34265 40.8057 1.56643 41.0295 1.73426 41.1414C1.90209 41.2532 2.01398 41.3092 2.01398 41.3092L14.5454 45.1134Z" fill="#DCCFBB"/>
<path d="M22.2656 28.5509L6.37758 23.6465L6.20975 24.15L11.3566 25.8656V26.0334L6.09786 24.5229L5.93003 25.0824L11.1328 26.7607V26.9285L5.81814 25.418L5.65031 26.0334L10.909 27.7117V27.8796L5.53842 26.425L5.37059 26.9285L10.4615 28.6628V28.8306L5.2587 27.3201L5.09087 27.8796L10.3496 29.6138V29.7817L4.97898 28.2152L4.75521 28.8306L10.1258 30.5649L10.0699 30.7327L4.64332 29.2222L4.47549 29.7257L9.90205 31.46L9.8461 31.6278L4.3636 30.1173L4.19577 30.6768L9.56638 32.411C9.56638 32.4856 9.55519 32.6348 9.51044 32.6348C9.46568 32.6348 5.85544 31.6092 4.08388 31.1243L3.91605 31.6278L9.17478 33.3061L9.11883 33.474L3.86011 31.9635L3.69227 32.5229L8.89506 34.2572L8.83911 34.4809L3.58039 32.9145L3.41255 33.418L8.61534 35.2082L8.55939 35.376L3.30067 33.8096L3.07689 34.3691L8.4475 36.1593L8.39156 36.383L2.965 34.7607L2.79717 35.2642L7.77618 36.9425V37.1662L2.62934 35.6558L2.46151 36.1593L7.77618 38.0054V38.1732L2.34962 36.6068L2.18179 37.1662L7.44052 38.8446L7.38457 39.0683L2.12585 37.5019L1.95801 38.0613L7.38457 39.8516V40.0194L1.84613 38.397L1.67829 38.9565L7.21674 40.8026V40.9145L1.62235 39.2921L1.56641 39.8516L6.93702 41.6418L6.88108 41.8096L1.56641 40.0753V40.4669L16.7272 44.9424L17.3985 44.1592L10.7412 42.0893L10.7971 41.9774L17.5104 43.8795L17.7342 43.376L10.965 41.1383L11.0209 41.0264L17.8461 42.9285L18.0139 42.425L11.2447 40.1872L11.3006 40.0753L18.1258 42.0893L18.2936 41.5858L11.5804 39.2921L11.6363 39.1243L18.4055 41.1383L18.5733 40.6907L11.8601 38.3411L11.916 38.2292L18.6852 40.2432L18.8531 39.7397L12.0839 37.446L12.1398 37.3341L18.909 39.2921L19.0768 38.7886L12.4195 36.5509L12.4755 36.383L19.1887 38.3226L19.3566 37.8191L12.6433 35.5998L12.6992 35.432L19.4685 37.446L19.6363 36.8865L12.923 34.6488L12.979 34.5369L19.7482 36.4949L19.916 35.9355L13.2587 33.6977L13.3146 33.5858L20.0838 35.4879L20.2517 34.9285L13.5384 32.8026L13.5943 32.6348L20.3636 34.4809L20.5314 33.9774L13.8181 31.8516L13.8741 31.6838L20.6433 33.5858L20.8111 33.0823L14.0978 30.9005L14.2097 30.7327L20.923 32.6907L21.0908 32.1872L14.3776 30.0054L14.4894 29.7817L21.2027 31.7956L21.3705 31.2362L14.6573 29.1103L14.7692 28.9425L21.4824 30.8446L21.6503 30.3411L14.8811 28.1033L14.937 27.9915L21.8181 29.8935L21.9859 29.3901L15.1608 27.2082L15.2167 27.0404L22.0978 28.9984L22.2656 28.5509Z" fill="#DCCFBB"/>
<path fill-rule="evenodd" clip-rule="evenodd" d="M21.758 5.76016C22.0377 4.64127 20.2475 4.13778 19.8559 5.31261C19.6817 5.83531 18.6991 9.39228 17.6717 13.185C17.4027 14.1782 17.1306 15.1876 16.8691 16.1629C16.5362 17.4047 16.2206 18.5912 15.9505 19.6187C15.4222 21.6289 15.0682 23.0306 15.1007 23.0468C15.1329 23.0629 15.6744 21.7316 16.4362 19.8002C16.837 18.784 17.2988 17.6017 17.7794 16.3622C19.5606 11.7683 21.6011 6.3878 21.758 5.76016ZM20.1356 6.65525C20.1356 6.43147 20.4154 5.53637 20.5272 5.42448C20.6391 5.3126 21.0774 5.39304 21.0261 5.66051C20.9748 5.92798 20.751 6.65525 20.5832 6.82308C20.4154 6.99091 20.1356 6.87902 20.1356 6.65525Z" fill="#DCCFBB"/>
<path d="M19.8559 5.31261C20.2475 4.13778 22.0377 4.64127 21.758 5.76016C21.6011 6.3878 19.5606 11.7683 17.7794 16.3622C17.2988 17.6017 16.837 18.784 16.4362 19.8002C15.6744 21.7316 15.1329 23.0629 15.1007 23.0468C15.0682 23.0306 15.4222 21.6289 15.9505 19.6187C16.2206 18.5912 16.5362 17.4047 16.8691 16.1629M19.8559 5.31261C19.6361 5.97219 18.129 11.4633 16.8691 16.1629M19.8559 5.31261C19.6817 5.83531 18.6991 9.39228 17.6717 13.185C17.4027 14.1782 17.1306 15.1876 16.8691 16.1629M20.5272 5.42448C20.4154 5.53637 20.1356 6.43147 20.1356 6.65525C20.1356 6.87902 20.4154 6.99091 20.5832 6.82308C20.751 6.65525 20.9748 5.92798 21.0261 5.66051C21.0774 5.39304 20.6391 5.3126 20.5272 5.42448Z" stroke="black" stroke-width="0.2" stroke-linecap="round"/>
</svg>
