<svg width="663" height="419" viewBox="0 0 663 419" fill="none" xmlns="http://www.w3.org/2000/svg">
<path d="M286.001 105.5C268.27 110.792 265.35 111.534 238.501 110.5C208.04 109.328 186.348 78.5005 186.348 78.5005M169.962 69.6406C140.261 55.3235 128.462 47.6407 125.962 36.1407C119.462 -2.85931 162.594 -7.02202 186.962 14.1406" stroke="#BC5D43" stroke-width="3" stroke-linecap="round"/>
<path d="M155.5 124.5L168 128.5L182 133L186 140.5L167 135.5L166.5 136.5L187 142.5L191.5 150.5L175.5 146L175 147L192.5 153.5L196.5 161L180.5 157L180 158L197.5 164L201.5 171.5L181.5 166.5L181 167.5L203 174.5L206.5 181.5L179.5 174.5L179 175.5L208 186L211.5 192L177 182.5L176.5 184L213.5 197V201.5L175 190.5L174 192.5L213.5 206L212.5 210.5L172 199L171 200L211.5 214.5L210 219L169.5 207L168.5 208.5L209 222.5L207.5 227L167.5 215.5L166.5 216.5L206.5 231.5L205 235.5L164.5 223.5L163.5 224.5L203.5 239L202 243L162 231.5L161 232.5L201 247L199.5 251.5L59 208.5L60.5 204.5L102.5 215.5L103.5 214L62 200L63 196.5L105 207.5L106 205.5L64.5 192L66 187L108 199L108.5 197.5L67 183.5L68.5 179L110.5 190.5L111 189.5L70 174.5L71 171.5L113 182.5L113.5 181L72 167L73.5 163L115.5 174L116 173L75 159L78 154.5L118 166.5L119 164.5L82.5 151.5L87.5 148L121 158L122 156.5L91.5 145.5L98 142.5L124 150L125.5 148.5L102 139.5L108 136.5L130 143L131.5 141.5L112.5 134L119.5 130L137 136L138 134.5L122 129L129 124.5L147 131.5L148.5 130.5L133 123.5L139.5 119.5L155.5 124.5ZM148.209 151.032C142.813 150.778 138.521 152.129 135.395 154.568C132.264 157.01 130.42 160.45 129.77 164.147C128.478 171.492 131.866 180.006 139.439 184.333L139.53 184.385L139.627 184.424L144.822 186.502L145.031 186.524C157.761 187.823 166.423 182.363 169.157 174.791C171.859 167.307 168.504 158.491 158.82 153.428L158.354 153.19L158.354 153.189H158.353C158.352 153.189 158.351 153.187 158.35 153.187C158.348 153.186 158.345 153.185 158.343 153.184C158.337 153.181 158.328 153.177 158.318 153.172C158.299 153.163 158.272 153.149 158.237 153.132C158.168 153.1 158.07 153.054 157.946 152.999C157.698 152.887 157.345 152.736 156.91 152.569C156.045 152.236 154.835 151.832 153.478 151.561C152.141 151.294 150.821 151.162 149.846 151.097C149.355 151.064 148.946 151.048 148.656 151.04C148.512 151.035 148.397 151.034 148.316 151.033C148.276 151.032 148.245 151.032 148.223 151.032H148.209Z" fill="#BC5D43"/>
<path fill-rule="evenodd" clip-rule="evenodd" d="M172.461 405.001C165.961 420.001 146.961 419.001 144.461 418.001L11.4608 377.501C11.4608 377.501 8.4608 376.501 3.46078 371.001C-1.53925 365.501 -0.0764542 349.324 1.4248 344.001C2.92605 338.678 57 155.361 61.9247 145.501C66.8494 135.641 133.5 100.361 136.961 100.501C140.421 100.641 173.961 112.001 173.961 112.001C173.961 112.001 193.461 117.501 196.961 120.501C200.461 123.501 233.461 186.501 233.461 197.501C233.461 208.501 172.461 405.001 172.461 405.001ZM130 403.361C132.249 404.279 157.153 414.134 163 400.361C163 400.361 220.5 210.361 222 200.361C223.5 190.361 192.148 131.615 189 128.861C185.852 126.106 158.939 118.361 158.939 118.361C158.939 118.361 140 111.861 137.5 112.001C135 112.141 73.5 146.861 72 149.861C70.5 152.861 13.8504 335.973 12.5 340.861C11.1496 345.748 7.50244 359.81 12 364.861C12 364.861 14 366.861 15.5 367.861C17 368.861 18 369.361 18 369.361L130 403.361Z" fill="#BC5D43"/>
<path d="M199 255.334L57 211.5L55.5 216L101.5 231.334V232.834L54.5 219.334L53 224.334L99.5 239.334V240.834L52 227.334L50.5 232.834L97.5 247.834V249.334L49.5 236.334L48 240.834L93.5 256.334V257.834L47 244.334L45.5 249.334L92.5 264.834V266.334L44.5 252.334L42.5 257.834L90.5 273.334L90 274.834L41.5 261.334L40 265.834L88.5 281.334L88 282.834L39 269.334L37.5 274.334L85.5 289.834C85.5 290.5 85.4 291.834 85 291.834C84.6 291.834 52.3333 282.667 36.5 278.334L35 282.834L82 297.834L81.5 299.334L34.5 285.834L33 290.834L79.5 306.334L79 308.334L32 294.334L30.5 298.834L77 314.834L76.5 316.334L29.5 302.334L27.5 307.334L75.5 323.334L75 325.334L26.5 310.834L25 315.334L69.5 330.334V332.334L23.5 318.834L22 323.334L69.5 339.834V341.334L21 327.334L19.5 332.334L66.5 347.334L66 349.334L19 335.334L17.5 340.334L66 356.334V357.834L16.5 343.334L15 348.334L64.5 364.834V365.834L14.5 351.334L14 356.334L62 372.334L61.5 373.834L14 358.334V361.834L149.5 401.834L155.5 394.834L96 376.334L96.5 375.334L156.5 392.334L158.5 387.834L98 367.834L98.5 366.834L159.5 383.834L161 379.334L100.5 359.334L101 358.334L162 376.334L163.5 371.834L103.5 351.334L104 349.834L164.5 367.834L166 363.834L106 342.834L106.5 341.834L167 359.834L168.5 355.334L108 334.834L108.5 333.834L169 351.334L170.5 346.834L111 326.834L111.5 325.334L171.5 342.669L173 338.169L113 318.334L113.5 316.834L174 334.834L175.5 329.834L115.5 309.834L116 308.834L176.5 326.334L178 321.334L118.5 301.334L119 300.334L179.5 317.334L181 312.334L121 293.334L121.5 291.834L182 308.334L183.5 303.834L123.5 284.834L124 283.334L184.5 300.334L186 295.834L126 276.334L127 274.834L187 292.334L188.5 287.834L128.5 268.334L129.5 266.334L189.5 284.334L191 279.334L131 260.334L132 258.834L192 275.834L193.5 271.334L133 251.334L133.5 250.334L195 267.334L196.5 262.834L135.5 243.334L136 241.834L197.5 259.334L199 255.334Z" fill="#BC5D43"/>
<path fill-rule="evenodd" clip-rule="evenodd" d="M194.462 51.6406C196.962 41.6406 180.962 37.1406 177.462 47.6406C175.905 52.3123 167.122 84.1028 157.94 118C155.536 126.877 153.104 135.899 150.767 144.616C147.792 155.714 144.971 166.318 142.557 175.501C137.835 193.468 134.672 205.996 134.962 206.141C135.249 206.285 140.089 194.386 146.898 177.124C150.48 168.042 154.607 157.475 158.903 146.396C174.823 105.339 193.059 57.2502 194.462 51.6406ZM179.962 59.6405C179.962 57.6405 182.462 49.6405 183.462 48.6405C184.462 47.6405 188.378 48.3595 187.92 50.75C187.462 53.1405 185.462 59.6405 183.962 61.1405C182.462 62.6405 179.962 61.6405 179.962 59.6405Z" fill="#BC5D43"/>
<path d="M177.462 47.6406C180.962 37.1406 196.962 41.6406 194.462 51.6406C193.059 57.2502 174.823 105.339 158.903 146.396C154.607 157.475 150.48 168.042 146.898 177.124C140.089 194.386 135.249 206.285 134.962 206.141C134.672 205.996 137.835 193.468 142.557 175.501C144.971 166.318 147.792 155.714 150.767 144.616M177.462 47.6406C175.497 53.5357 162.027 102.613 150.767 144.616M177.462 47.6406C175.905 52.3123 167.122 84.1028 157.94 118C155.536 126.877 153.104 135.899 150.767 144.616M183.462 48.6405C182.462 49.6405 179.962 57.6405 179.962 59.6405C179.962 61.6405 182.462 62.6405 183.962 61.1405C185.462 59.6405 187.462 53.1405 187.92 50.75C188.378 48.3595 184.462 47.6405 183.462 48.6405Z" stroke="black" stroke-linecap="round"/>
<path d="M290.52 186.708L292.728 186.9V234.036C292.728 237.364 293.304 239.764 294.456 241.236C295.672 242.644 297.592 243.348 300.216 243.348C300.408 243.348 300.504 243.54 300.504 243.924C300.504 244.308 300.408 244.5 300.216 244.5C298.616 244.5 297.4 244.468 296.568 244.404L291.768 244.308L286.872 244.404C285.976 244.468 284.664 244.5 282.936 244.5C282.808 244.5 282.744 244.308 282.744 243.924C282.744 243.54 282.808 243.348 282.936 243.348C285.688 243.348 287.64 242.644 288.792 241.236C289.944 239.764 290.52 237.364 290.52 234.036V186.708ZM338.904 245.652C338.904 245.78 338.744 245.876 338.424 245.94C338.104 246.004 337.88 245.972 337.752 245.844L293.592 192.372C291.544 189.876 289.656 188.148 287.928 187.188C286.264 186.164 284.6 185.652 282.936 185.652C282.744 185.652 282.648 185.46 282.648 185.076C282.648 184.692 282.744 184.5 282.936 184.5L286.488 184.596C287.256 184.66 288.312 184.692 289.656 184.692C291.064 184.692 292.216 184.66 293.112 184.596C294.008 184.532 294.712 184.5 295.224 184.5C295.672 184.5 296.024 184.628 296.28 184.884C296.6 185.076 296.952 185.524 297.336 186.228C298.104 187.38 298.904 188.468 299.736 189.492L338.136 236.628L338.904 245.652ZM338.904 245.652L336.696 242.676V195.06C336.696 191.732 336.12 189.332 334.968 187.86C333.88 186.388 332.024 185.652 329.4 185.652C329.272 185.652 329.208 185.46 329.208 185.076C329.208 184.692 329.272 184.5 329.4 184.5L333.144 184.596C335.064 184.724 336.632 184.788 337.848 184.788C339 184.788 340.6 184.724 342.648 184.596L346.584 184.5C346.776 184.5 346.872 184.692 346.872 185.076C346.872 185.46 346.776 185.652 346.584 185.652C343.896 185.652 341.944 186.388 340.728 187.86C339.512 189.332 338.904 191.732 338.904 195.06V245.652ZM370.926 245.748C367.214 245.748 363.918 244.852 361.038 243.06C358.222 241.204 356.046 238.74 354.51 235.668C352.974 232.532 352.206 229.14 352.206 225.492C352.206 221.332 353.198 217.812 355.182 214.932C357.23 211.988 359.822 209.812 362.958 208.404C366.158 206.932 369.39 206.196 372.654 206.196C376.43 206.196 379.726 207.124 382.542 208.98C385.358 210.836 387.502 213.3 388.974 216.372C390.51 219.38 391.278 222.58 391.278 225.972C391.278 229.94 390.35 233.428 388.494 236.436C386.638 239.38 384.142 241.684 381.006 243.348C377.934 244.948 374.574 245.748 370.926 245.748ZM373.71 243.924C377.23 243.924 379.95 242.676 381.87 240.18C383.79 237.684 384.75 233.844 384.75 228.66C384.75 224.692 384.078 221.14 382.734 218.004C381.454 214.868 379.662 212.436 377.358 210.708C375.054 208.916 372.43 208.02 369.486 208.02C366.03 208.02 363.342 209.268 361.422 211.764C359.566 214.26 358.638 217.844 358.638 222.516C358.638 226.42 359.278 230.004 360.558 233.268C361.838 236.532 363.63 239.124 365.934 241.044C368.238 242.964 370.83 243.924 373.71 243.924ZM404.288 213.3C404.288 215.54 405.024 217.332 406.496 218.676C407.968 219.956 410.144 221.332 413.024 222.804C415.264 223.956 416.992 224.948 418.208 225.78C419.488 226.612 420.576 227.7 421.472 229.044C422.368 230.388 422.816 232.02 422.816 233.94C422.816 237.204 421.6 239.956 419.168 242.196C416.736 244.436 413.44 245.556 409.28 245.556C405.888 245.556 402.816 244.596 400.064 242.676C399.68 242.42 399.488 242.036 399.488 241.524L399.296 234.036C399.296 233.844 399.456 233.748 399.776 233.748C400.16 233.684 400.384 233.748 400.448 233.94C401.664 237.204 403.232 239.668 405.152 241.332C407.136 242.932 409.408 243.732 411.968 243.732C413.952 243.732 415.488 243.284 416.576 242.388C417.728 241.428 418.304 240.02 418.304 238.164C418.304 236.372 417.888 234.868 417.056 233.652C416.288 232.372 415.328 231.38 414.176 230.676C413.024 229.908 411.456 229.012 409.472 227.988C407.36 226.964 405.664 226.036 404.384 225.204C403.168 224.372 402.112 223.284 401.216 221.94C400.384 220.596 399.968 218.932 399.968 216.948C399.968 213.492 401.248 210.868 403.808 209.076C406.432 207.22 409.504 206.292 413.024 206.292C415.584 206.292 417.92 206.772 420.031 207.732C420.416 207.86 420.64 208.02 420.704 208.212C420.832 208.34 420.896 208.532 420.896 208.788C420.896 210.068 420.864 211.06 420.8 211.764L420.704 215.796C420.704 215.924 420.512 215.988 420.128 215.988C419.744 215.988 419.552 215.924 419.552 215.796C419.552 213.748 418.464 211.956 416.288 210.42C414.176 208.884 411.936 208.116 409.568 208.116C407.904 208.116 406.592 208.564 405.632 209.46C404.736 210.292 404.288 211.572 404.288 213.3ZM436.163 213.3C436.163 215.54 436.899 217.332 438.371 218.676C439.843 219.956 442.019 221.332 444.899 222.804C447.139 223.956 448.867 224.948 450.083 225.78C451.363 226.612 452.451 227.7 453.347 229.044C454.243 230.388 454.691 232.02 454.691 233.94C454.691 237.204 453.475 239.956 451.043 242.196C448.611 244.436 445.315 245.556 441.155 245.556C437.763 245.556 434.691 244.596 431.939 242.676C431.555 242.42 431.363 242.036 431.363 241.524L431.171 234.036C431.171 233.844 431.331 233.748 431.651 233.748C432.035 233.684 432.259 233.748 432.323 233.94C433.539 237.204 435.107 239.668 437.027 241.332C439.011 242.932 441.283 243.732 443.843 243.732C445.827 243.732 447.363 243.284 448.451 242.388C449.603 241.428 450.179 240.02 450.179 238.164C450.179 236.372 449.763 234.868 448.931 233.652C448.163 232.372 447.203 231.38 446.051 230.676C444.899 229.908 443.331 229.012 441.347 227.988C439.235 226.964 437.539 226.036 436.259 225.204C435.043 224.372 433.987 223.284 433.091 221.94C432.259 220.596 431.843 218.932 431.843 216.948C431.843 213.492 433.123 210.868 435.683 209.076C438.307 207.22 441.379 206.292 444.899 206.292C447.459 206.292 449.795 206.772 451.906 207.732C452.291 207.86 452.515 208.02 452.579 208.212C452.707 208.34 452.771 208.532 452.771 208.788C452.771 210.068 452.739 211.06 452.675 211.764L452.579 215.796C452.579 215.924 452.387 215.988 452.003 215.988C451.619 215.988 451.427 215.924 451.427 215.796C451.427 213.748 450.339 211.956 448.163 210.42C446.051 208.884 443.811 208.116 441.443 208.116C439.779 208.116 438.467 208.564 437.507 209.46C436.611 210.292 436.163 211.572 436.163 213.3ZM481.176 245.748C477.464 245.748 474.168 244.852 471.288 243.06C468.472 241.204 466.296 238.74 464.76 235.668C463.224 232.532 462.456 229.14 462.456 225.492C462.456 221.332 463.448 217.812 465.432 214.932C467.48 211.988 470.072 209.812 473.208 208.404C476.408 206.932 479.64 206.196 482.904 206.196C486.68 206.196 489.976 207.124 492.792 208.98C495.608 210.836 497.752 213.3 499.224 216.372C500.76 219.38 501.528 222.58 501.528 225.972C501.528 229.94 500.6 233.428 498.744 236.436C496.888 239.38 494.392 241.684 491.256 243.348C488.184 244.948 484.824 245.748 481.176 245.748ZM483.96 243.924C487.48 243.924 490.2 242.676 492.12 240.18C494.04 237.684 495 233.844 495 228.66C495 224.692 494.328 221.14 492.984 218.004C491.704 214.868 489.912 212.436 487.608 210.708C485.304 208.916 482.68 208.02 479.736 208.02C476.28 208.02 473.592 209.268 471.672 211.764C469.816 214.26 468.888 217.844 468.888 222.516C468.888 226.42 469.528 230.004 470.808 233.268C472.088 236.532 473.88 239.124 476.184 241.044C478.488 242.964 481.08 243.924 483.96 243.924ZM318.168 342.652C311.128 342.652 304.984 341.244 299.736 338.428C294.552 335.612 290.584 331.804 287.832 327.004C285.08 322.204 283.704 316.924 283.704 311.164C283.704 304.956 285.272 299.548 288.408 294.94C291.544 290.268 295.832 286.684 301.272 284.188C306.776 281.692 312.92 280.444 319.704 280.444C323.096 280.444 326.296 280.764 329.304 281.404C332.312 282.044 334.808 282.972 336.792 284.188C337.304 284.444 337.592 284.668 337.656 284.86C337.72 285.052 337.784 285.532 337.848 286.3L339 297.628C339 297.82 338.808 297.948 338.424 298.012C338.104 298.076 337.912 297.98 337.848 297.724C334.904 287.228 328.248 281.98 317.88 281.98C312.824 281.98 308.248 283.132 304.152 285.436C300.12 287.676 296.92 290.908 294.552 295.132C292.248 299.292 291.096 304.156 291.096 309.724C291.096 315.164 292.216 320.284 294.456 325.084C296.696 329.884 300.024 333.788 304.44 336.796C308.92 339.74 314.36 341.212 320.76 341.212C325.304 341.212 328.504 340.348 330.36 338.62C332.216 336.828 333.144 333.788 333.144 329.5C333.144 326.172 332.92 323.868 332.472 322.588C332.088 321.244 331.16 320.348 329.688 319.9C328.28 319.452 325.784 319.228 322.2 319.228C321.816 319.228 321.624 318.972 321.624 318.46C321.624 318.268 321.656 318.108 321.72 317.98C321.848 317.788 321.976 317.692 322.104 317.692C327.096 318.012 331.128 318.172 334.2 318.172C337.208 318.172 340.376 318.076 343.704 317.884C343.832 317.884 343.928 317.98 343.992 318.172C344.12 318.3 344.184 318.428 344.184 318.556C344.184 319.004 344.024 319.228 343.704 319.228C342.104 319.164 340.984 319.388 340.344 319.9C339.704 320.348 339.288 321.308 339.096 322.78C338.904 324.252 338.808 326.812 338.808 330.46C338.808 333.34 338.904 335.388 339.096 336.604C339.352 337.82 339.48 338.588 339.48 338.908C339.48 339.292 339.416 339.548 339.288 339.676C339.16 339.804 338.872 339.932 338.424 340.06C330.616 341.788 323.864 342.652 318.168 342.652ZM377.582 342.076C377.326 342.204 377.07 342.268 376.814 342.268C375.854 342.268 375.022 341.532 374.318 340.06C373.614 338.588 373.262 336.636 373.262 334.204V316.06C373.262 308.892 371.246 305.308 367.214 305.308C365.038 305.308 363.374 306.044 362.222 307.516C361.134 308.924 360.398 310.556 360.014 312.412C359.758 313.628 359.374 314.588 358.862 315.292C358.414 315.996 357.582 316.348 356.366 316.348C355.342 316.348 354.542 316.06 353.966 315.484C353.454 314.908 353.198 314.236 353.198 313.468C353.198 311.932 354.19 310.396 356.174 308.86C358.158 307.324 360.526 306.044 363.278 305.02C366.03 303.996 368.494 303.484 370.67 303.484C373.294 303.484 375.278 304.316 376.622 305.98C377.966 307.644 378.638 310.044 378.638 313.18V331.132C378.638 333.372 378.926 335.004 379.502 336.028C380.078 337.052 381.006 337.564 382.286 337.564C383.566 337.564 385.166 337.148 387.086 336.316H387.278C387.534 336.316 387.694 336.476 387.758 336.796C387.822 337.052 387.726 337.244 387.47 337.372L377.582 342.076ZM360.302 342.172C357.934 342.172 356.078 341.564 354.734 340.348C353.454 339.068 352.814 337.468 352.814 335.548C352.814 333.628 353.582 331.964 355.118 330.556C356.654 329.148 359.182 327.804 362.702 326.524L374.222 322.204L374.51 323.452L364.334 327.388C362.542 328.092 361.23 328.924 360.398 329.884C359.63 330.78 359.246 331.868 359.246 333.148C359.246 334.684 359.726 335.996 360.686 337.084C361.71 338.108 363.022 338.62 364.622 338.62C365.902 338.62 367.438 338.108 369.23 337.084L375.278 333.436L375.47 334.684L368.366 339.292C366.766 340.316 365.358 341.052 364.142 341.5C362.926 341.948 361.646 342.172 360.302 342.172ZM401 314.428C404.392 310.204 407.016 307.356 408.872 305.884C410.728 304.348 412.456 303.58 414.056 303.58C415.464 303.58 416.808 303.964 418.088 304.732C419.368 305.5 420.008 306.428 420.008 307.516C420.008 308.348 419.72 309.052 419.144 309.628C418.568 310.204 417.8 310.492 416.84 310.492C416.264 310.492 415.752 310.396 415.304 310.204C414.92 309.948 414.44 309.596 413.864 309.148C413.288 308.636 412.744 308.252 412.232 307.996C411.72 307.74 411.112 307.612 410.408 307.612C409.448 307.612 408.392 308.092 407.24 309.052C406.088 310.012 404.136 312.156 401.384 315.484L401 314.428ZM391.976 341.5C391.784 341.5 391.688 341.308 391.688 340.924C391.688 340.54 391.784 340.348 391.976 340.348C393.704 340.348 394.984 340.188 395.816 339.868C396.648 339.484 397.192 338.844 397.448 337.948C397.768 337.052 397.928 335.644 397.928 333.724V314.716C397.928 312.54 397.672 310.972 397.16 310.012C396.648 309.052 395.784 308.572 394.568 308.572C393.544 308.572 391.816 309.052 389.384 310.012H389.192C388.936 310.012 388.744 309.884 388.616 309.628C388.552 309.308 388.648 309.084 388.904 308.956L400.04 303.676C400.168 303.612 400.36 303.58 400.616 303.58C401.192 303.58 401.8 304.316 402.44 305.788C403.08 307.26 403.4 309.148 403.4 311.452V333.724C403.4 335.644 403.624 337.052 404.072 337.948C404.584 338.844 405.48 339.484 406.76 339.868C408.04 340.188 410.024 340.348 412.712 340.348C412.968 340.348 413.096 340.54 413.096 340.924C413.096 341.308 412.968 341.5 412.712 341.5C410.664 341.5 409.032 341.468 407.816 341.404L400.712 341.308L395.432 341.404C394.6 341.468 393.448 341.5 391.976 341.5ZM427.713 341.5C427.585 341.5 427.521 341.308 427.521 340.924C427.521 340.54 427.585 340.348 427.713 340.348C429.441 340.348 430.721 340.188 431.553 339.868C432.449 339.484 433.057 338.844 433.377 337.948C433.697 337.052 433.857 335.644 433.857 333.724V315.772C433.857 313.468 433.601 311.804 433.089 310.78C432.641 309.756 431.841 309.244 430.689 309.244C429.537 309.244 428.097 309.692 426.369 310.588H426.273C426.017 310.588 425.825 310.428 425.697 310.108C425.569 309.788 425.601 309.564 425.793 309.436L438.273 303.676L438.657 303.58C438.785 303.58 438.945 303.676 439.137 303.868C439.329 303.996 439.425 304.156 439.425 304.348C439.425 304.796 439.393 306.076 439.329 308.188C439.265 310.3 439.233 312.796 439.233 315.676V333.724C439.233 335.644 439.393 337.052 439.713 337.948C440.033 338.844 440.609 339.484 441.441 339.868C442.273 340.188 443.553 340.348 445.281 340.348C445.473 340.348 445.569 340.54 445.569 340.924C445.569 341.308 445.473 341.5 445.281 341.5C443.809 341.5 442.625 341.468 441.729 341.404L436.545 341.308L431.361 341.404C430.465 341.468 429.249 341.5 427.713 341.5ZM435.777 292.348C434.497 292.348 433.473 291.996 432.705 291.292C431.937 290.588 431.553 289.596 431.553 288.316C431.553 287.036 431.937 286.044 432.705 285.34C433.473 284.636 434.497 284.284 435.777 284.284C437.057 284.284 438.049 284.636 438.753 285.34C439.457 286.044 439.809 287.036 439.809 288.316C439.809 289.596 439.457 290.588 438.753 291.292C438.049 291.996 437.057 292.348 435.777 292.348ZM502.635 341.5C502.443 341.5 502.347 341.308 502.347 340.924C502.347 340.54 502.443 340.348 502.635 340.348C504.363 340.348 505.643 340.188 506.475 339.868C507.307 339.484 507.883 338.844 508.203 337.948C508.523 336.988 508.683 335.58 508.683 333.724V318.46C508.683 314.684 508.011 311.868 506.667 310.012C505.323 308.156 503.243 307.228 500.427 307.228C498.187 307.228 495.883 307.996 493.515 309.532C491.211 311.004 489.227 313.02 487.563 315.58L487.179 314.428C489.867 310.652 492.523 307.9 495.147 306.172C497.835 304.38 500.651 303.484 503.595 303.484C506.987 303.484 509.579 304.444 511.371 306.364C513.163 308.284 514.059 311.196 514.059 315.1V333.724C514.059 335.644 514.219 337.052 514.539 337.948C514.859 338.844 515.435 339.484 516.267 339.868C517.099 340.188 518.379 340.348 520.107 340.348C520.299 340.348 520.395 340.54 520.395 340.924C520.395 341.308 520.299 341.5 520.107 341.5C518.635 341.5 517.451 341.468 516.555 341.404L511.371 341.308L506.187 341.404C505.291 341.468 504.107 341.5 502.635 341.5ZM477.867 341.5C477.675 341.5 477.579 341.308 477.579 340.924C477.579 340.54 477.675 340.348 477.867 340.348C479.595 340.348 480.875 340.188 481.707 339.868C482.539 339.484 483.083 338.844 483.339 337.948C483.659 337.052 483.819 335.644 483.819 333.724V318.46C483.819 314.684 483.147 311.868 481.803 310.012C480.459 308.156 478.411 307.228 475.659 307.228C473.355 307.228 471.051 307.996 468.747 309.532C466.443 311.004 464.459 313.02 462.795 315.58L462.411 314.428C465.099 310.652 467.755 307.9 470.379 306.172C473.067 304.38 475.851 303.484 478.731 303.484C482.123 303.484 484.715 304.444 486.507 306.364C488.363 308.284 489.291 311.132 489.291 314.908V333.724C489.291 335.644 489.451 337.052 489.771 337.948C490.091 338.844 490.667 339.484 491.499 339.868C492.331 340.188 493.611 340.348 495.339 340.348C495.531 340.348 495.627 340.54 495.627 340.924C495.627 341.308 495.531 341.5 495.339 341.5C493.867 341.5 492.683 341.468 491.787 341.404L486.603 341.308L481.323 341.404C480.491 341.468 479.339 341.5 477.867 341.5ZM453.195 341.5C453.003 341.5 452.907 341.308 452.907 340.924C452.907 340.54 453.003 340.348 453.195 340.348C454.923 340.348 456.203 340.188 457.035 339.868C457.867 339.484 458.411 338.844 458.667 337.948C458.987 337.052 459.147 335.644 459.147 333.724V314.716C459.147 312.54 458.891 310.972 458.379 310.012C457.867 309.052 457.003 308.572 455.787 308.572C454.763 308.572 453.035 309.052 450.603 310.012H450.411C450.155 310.012 449.963 309.884 449.835 309.628C449.771 309.308 449.867 309.084 450.123 308.956L461.259 303.676C461.387 303.612 461.579 303.58 461.835 303.58C462.411 303.58 463.019 304.316 463.659 305.788C464.299 307.26 464.619 309.148 464.619 311.452V333.724C464.619 335.644 464.747 337.052 465.003 337.948C465.323 338.844 465.899 339.484 466.731 339.868C467.563 340.188 468.843 340.348 470.571 340.348C470.763 340.348 470.859 340.54 470.859 340.924C470.859 341.308 470.763 341.5 470.571 341.5C469.099 341.5 467.947 341.468 467.115 341.404L461.931 341.308L456.651 341.404C455.819 341.468 454.667 341.5 453.195 341.5ZM525.166 367.9C524.974 367.9 524.878 367.708 524.878 367.324C524.878 366.94 524.974 366.748 525.166 366.748C526.894 366.748 528.174 366.556 529.006 366.172C529.838 365.852 530.414 365.244 530.734 364.348C531.054 363.452 531.214 362.044 531.214 360.124V315.004C531.214 312.7 530.958 311.068 530.446 310.108C529.934 309.084 529.038 308.572 527.758 308.572C526.35 308.572 524.654 309.02 522.67 309.916L522.478 310.012C522.222 310.012 522.062 309.852 521.998 309.532C521.87 309.212 521.902 308.988 522.094 308.86L532.75 303.772C532.878 303.708 533.102 303.676 533.422 303.676C534.318 303.676 535.054 304.444 535.63 305.98C536.27 307.452 536.59 309.532 536.59 312.22V360.124C536.59 362.044 536.814 363.452 537.262 364.348C537.774 365.244 538.67 365.852 539.95 366.172C541.294 366.556 543.374 366.748 546.19 366.748C546.318 366.748 546.382 366.94 546.382 367.324C546.382 367.708 546.318 367.9 546.19 367.9C544.014 367.9 542.286 367.868 541.006 367.804L533.998 367.708L528.718 367.804C527.822 367.868 526.638 367.9 525.166 367.9ZM546.766 342.748C544.27 342.748 542.094 342.428 540.238 341.788C538.382 341.212 536.334 340.156 534.094 338.62L535.438 333.34C537.422 335.772 539.47 337.628 541.582 338.908C543.758 340.124 546.446 340.732 549.646 340.732C553.038 340.732 555.822 339.26 557.998 336.316C560.174 333.308 561.262 329.148 561.262 323.836C561.262 318.46 560.078 314.3 557.71 311.356C555.342 308.348 552.334 306.844 548.686 306.844C546.126 306.844 543.79 307.516 541.678 308.86C539.63 310.204 537.39 312.188 534.958 314.812L534.19 314.044C537.454 310.332 540.59 307.612 543.598 305.884C546.606 304.092 549.646 303.196 552.718 303.196C555.342 303.196 557.774 303.9 560.014 305.308C562.254 306.716 564.046 308.764 565.39 311.452C566.734 314.14 567.406 317.276 567.406 320.86C567.406 325.66 566.318 329.724 564.142 333.052C561.966 336.316 559.278 338.748 556.078 340.348C552.942 341.948 549.838 342.748 546.766 342.748ZM593.301 342.748C589.589 342.748 586.293 341.852 583.413 340.06C580.597 338.204 578.421 335.74 576.885 332.668C575.349 329.532 574.581 326.14 574.581 322.492C574.581 318.332 575.573 314.812 577.557 311.932C579.605 308.988 582.197 306.812 585.333 305.404C588.533 303.932 591.765 303.196 595.029 303.196C598.805 303.196 602.101 304.124 604.917 305.98C607.733 307.836 609.877 310.3 611.349 313.372C612.885 316.38 613.653 319.58 613.653 322.972C613.653 326.94 612.725 330.428 610.869 333.436C609.013 336.38 606.517 338.684 603.381 340.348C600.309 341.948 596.949 342.748 593.301 342.748ZM596.085 340.924C599.605 340.924 602.325 339.676 604.245 337.18C606.165 334.684 607.125 330.844 607.125 325.66C607.125 321.692 606.453 318.14 605.109 315.004C603.829 311.868 602.037 309.436 599.733 307.708C597.429 305.916 594.805 305.02 591.861 305.02C588.405 305.02 585.717 306.268 583.797 308.764C581.941 311.26 581.013 314.844 581.013 319.516C581.013 323.42 581.653 327.004 582.933 330.268C584.213 333.532 586.005 336.124 588.309 338.044C590.613 339.964 593.205 340.924 596.085 340.924Z" fill="#BC5D43"/>
<path d="M284.22 383.212C284.22 384.148 284.448 384.964 284.904 385.66C285.36 386.356 285.912 386.944 286.56 387.424C287.208 387.88 288.12 388.468 289.296 389.188C290.544 389.932 291.516 390.556 292.212 391.06C292.908 391.564 293.496 392.212 293.976 393.004C294.48 393.772 294.732 394.696 294.732 395.776C294.732 396.928 294.444 397.972 293.868 398.908C293.292 399.844 292.44 400.588 291.312 401.14C290.208 401.668 288.876 401.932 287.316 401.932C285.468 401.932 283.776 401.512 282.24 400.672C282.12 400.6 282.036 400.516 281.988 400.42C281.964 400.324 281.94 400.18 281.916 399.988L281.448 395.092C281.424 394.996 281.472 394.936 281.592 394.912C281.736 394.888 281.82 394.924 281.844 395.02C282.204 396.724 282.912 398.212 283.968 399.484C285.024 400.732 286.416 401.356 288.144 401.356C289.344 401.356 290.352 401.032 291.168 400.384C292.008 399.712 292.428 398.656 292.428 397.216C292.428 396.136 292.188 395.2 291.708 394.408C291.228 393.616 290.64 392.968 289.944 392.464C289.272 391.936 288.348 391.324 287.172 390.628C286.02 389.932 285.108 389.332 284.436 388.828C283.788 388.324 283.236 387.688 282.78 386.92C282.324 386.152 282.096 385.252 282.096 384.22C282.096 383.02 282.408 382 283.032 381.16C283.68 380.296 284.508 379.66 285.516 379.252C286.548 378.82 287.64 378.604 288.792 378.604C290.208 378.604 291.612 378.892 293.004 379.468C293.364 379.588 293.544 379.792 293.544 380.08L293.796 384.184C293.796 384.304 293.724 384.364 293.58 384.364C293.46 384.364 293.388 384.316 293.364 384.22C293.196 382.972 292.692 381.82 291.852 380.764C291.012 379.684 289.8 379.144 288.216 379.144C286.872 379.144 285.864 379.54 285.192 380.332C284.544 381.1 284.22 382.06 284.22 383.212ZM304.568 401.932C303.176 401.932 301.988 401.608 301.004 400.96C300.02 400.312 299.264 399.46 298.736 398.404C298.232 397.348 297.98 396.22 297.98 395.02C297.98 393.604 298.316 392.308 298.988 391.132C299.66 389.932 300.572 388.996 301.724 388.324C302.9 387.628 304.184 387.28 305.576 387.28C306.92 387.28 307.952 387.64 308.672 388.36C309.392 389.08 309.752 390.088 309.752 391.384C309.752 391.72 309.716 391.96 309.644 392.104C309.596 392.248 309.488 392.32 309.32 392.32H307.304L307.34 391.672C307.34 390.472 307.076 389.56 306.548 388.936C306.02 388.312 305.3 388 304.388 388C303.116 388 302.12 388.504 301.4 389.512C300.704 390.52 300.356 391.9 300.356 393.652C300.356 395.74 300.848 397.432 301.832 398.728C302.816 400.024 304.196 400.672 305.972 400.672C306.692 400.672 307.304 400.576 307.808 400.384C308.336 400.192 308.924 399.892 309.572 399.484H309.608C309.68 399.484 309.74 399.532 309.788 399.628C309.86 399.7 309.872 399.772 309.824 399.844C308.192 401.236 306.44 401.932 304.568 401.932ZM299.672 391.888L307.844 391.744V392.32L299.708 392.356L299.672 391.888ZM317.931 401.788C316.731 401.788 315.795 401.416 315.123 400.672C314.451 399.904 314.115 398.8 314.115 397.36V391.852C314.115 390.916 314.031 390.244 313.863 389.836C313.695 389.404 313.419 389.188 313.035 389.188C312.699 389.188 312.291 389.308 311.811 389.548H311.775C311.679 389.548 311.607 389.488 311.559 389.368C311.511 389.224 311.535 389.14 311.631 389.116L315.627 387.316L315.771 387.28C315.843 387.28 315.915 387.316 315.987 387.388C316.083 387.436 316.131 387.496 316.131 387.568V396.172C316.131 398.956 317.139 400.348 319.155 400.348C320.067 400.348 320.991 400.072 321.927 399.52C322.863 398.968 323.667 398.224 324.339 397.288L324.519 397.684C323.439 399.1 322.359 400.144 321.279 400.816C320.199 401.464 319.083 401.788 317.931 401.788ZM325.671 397.648C325.671 398.464 325.767 399.052 325.959 399.412C326.151 399.772 326.475 399.952 326.931 399.952C327.339 399.952 327.975 399.784 328.839 399.448H328.911C329.007 399.448 329.067 399.508 329.091 399.628C329.139 399.724 329.115 399.796 329.019 399.844L324.807 401.824L324.663 401.86C324.423 401.86 324.195 401.584 323.979 401.032C323.763 400.48 323.655 399.76 323.655 398.872V391.852C323.655 390.892 323.571 390.208 323.403 389.8C323.259 389.392 322.983 389.188 322.575 389.188C322.239 389.188 321.831 389.308 321.351 389.548H321.315C321.219 389.548 321.147 389.488 321.099 389.368C321.075 389.224 321.111 389.14 321.207 389.116L325.203 387.316L325.311 387.28C325.383 387.28 325.455 387.316 325.527 387.388C325.623 387.436 325.671 387.496 325.671 387.568V397.648ZM345.454 401.932C344.062 401.932 342.874 401.608 341.89 400.96C340.906 400.312 340.15 399.46 339.622 398.404C339.118 397.348 338.866 396.22 338.866 395.02C338.866 393.604 339.202 392.308 339.874 391.132C340.546 389.932 341.458 388.996 342.61 388.324C343.786 387.628 345.07 387.28 346.462 387.28C347.806 387.28 348.838 387.64 349.558 388.36C350.278 389.08 350.638 390.088 350.638 391.384C350.638 391.72 350.602 391.96 350.53 392.104C350.482 392.248 350.374 392.32 350.206 392.32H348.19L348.226 391.672C348.226 390.472 347.962 389.56 347.434 388.936C346.906 388.312 346.186 388 345.274 388C344.002 388 343.006 388.504 342.286 389.512C341.59 390.52 341.242 391.9 341.242 393.652C341.242 395.74 341.734 397.432 342.718 398.728C343.702 400.024 345.082 400.672 346.858 400.672C347.578 400.672 348.19 400.576 348.694 400.384C349.222 400.192 349.81 399.892 350.458 399.484H350.494C350.566 399.484 350.626 399.532 350.674 399.628C350.746 399.7 350.758 399.772 350.71 399.844C349.078 401.236 347.326 401.932 345.454 401.932ZM340.558 391.888L348.73 391.744V392.32L340.594 392.356L340.558 391.888ZM355.866 389.8C355.866 390.64 356.142 391.312 356.694 391.816C357.246 392.296 358.062 392.812 359.142 393.364C359.982 393.796 360.63 394.168 361.086 394.48C361.566 394.792 361.974 395.2 362.31 395.704C362.646 396.208 362.814 396.82 362.814 397.54C362.814 398.764 362.358 399.796 361.446 400.636C360.534 401.476 359.298 401.896 357.738 401.896C356.466 401.896 355.314 401.536 354.282 400.816C354.138 400.72 354.066 400.576 354.066 400.384L353.994 397.576C353.994 397.504 354.054 397.468 354.174 397.468C354.318 397.444 354.402 397.468 354.426 397.54C354.882 398.764 355.47 399.688 356.19 400.312C356.934 400.912 357.786 401.212 358.746 401.212C359.49 401.212 360.066 401.044 360.474 400.708C360.906 400.348 361.122 399.82 361.122 399.124C361.122 398.452 360.966 397.888 360.654 397.432C360.366 396.952 360.006 396.58 359.574 396.316C359.142 396.028 358.554 395.692 357.81 395.308C357.018 394.924 356.382 394.576 355.902 394.264C355.446 393.952 355.05 393.544 354.714 393.04C354.402 392.536 354.246 391.912 354.246 391.168C354.246 389.872 354.726 388.888 355.686 388.216C356.67 387.52 357.822 387.172 359.142 387.172C360.102 387.172 360.978 387.352 361.77 387.712C361.914 387.76 361.998 387.82 362.022 387.892C362.07 387.94 362.094 388.012 362.094 388.108C362.094 388.588 362.082 388.96 362.058 389.224L362.022 390.736C362.022 390.784 361.95 390.808 361.806 390.808C361.662 390.808 361.59 390.784 361.59 390.736C361.59 389.968 361.182 389.296 360.366 388.72C359.574 388.144 358.734 387.856 357.846 387.856C357.222 387.856 356.73 388.024 356.37 388.36C356.034 388.672 355.866 389.152 355.866 389.8ZM371.198 401.932C370.19 401.932 369.362 401.704 368.714 401.248C368.066 400.792 367.742 400.036 367.742 398.98V390.52C367.742 389.896 367.694 389.452 367.598 389.188C367.526 388.924 367.37 388.756 367.13 388.684C366.89 388.588 366.482 388.54 365.906 388.54C365.81 388.54 365.762 388.468 365.762 388.324C365.762 388.156 365.81 388.072 365.906 388.072C366.866 388.048 367.646 387.796 368.246 387.316C368.846 386.812 369.194 386.152 369.29 385.336C369.29 385.264 369.386 385.228 369.578 385.228C369.746 385.228 369.83 385.264 369.83 385.336V397.756C369.83 399.7 370.778 400.672 372.674 400.672C373.778 400.672 374.738 400.336 375.554 399.664L375.626 399.628C375.722 399.628 375.794 399.688 375.842 399.808C375.89 399.904 375.878 399.976 375.806 400.024C374.918 400.72 374.114 401.212 373.394 401.5C372.698 401.788 371.966 401.932 371.198 401.932ZM374.69 389.368C373.154 388.984 371.33 388.792 369.218 388.792V388C370.73 388 372.602 387.88 374.834 387.64C374.882 387.64 374.93 387.736 374.978 387.928C375.05 388.096 375.086 388.288 375.086 388.504C375.086 388.696 375.038 388.9 374.942 389.116C374.87 389.308 374.786 389.392 374.69 389.368ZM378.502 401.5C378.454 401.5 378.43 401.428 378.43 401.284C378.43 401.14 378.454 401.068 378.502 401.068C379.15 401.068 379.63 401.008 379.942 400.888C380.278 400.744 380.506 400.504 380.626 400.168C380.746 399.832 380.806 399.304 380.806 398.584V391.852C380.806 390.988 380.71 390.364 380.518 389.98C380.35 389.596 380.05 389.404 379.618 389.404C379.186 389.404 378.646 389.572 377.998 389.908H377.962C377.866 389.908 377.794 389.848 377.746 389.728C377.698 389.608 377.71 389.524 377.782 389.476L382.462 387.316L382.606 387.28C382.654 387.28 382.714 387.316 382.786 387.388C382.858 387.436 382.894 387.496 382.894 387.568C382.894 387.736 382.882 388.216 382.858 389.008C382.834 389.8 382.822 390.736 382.822 391.816V398.584C382.822 399.304 382.882 399.832 383.002 400.168C383.122 400.504 383.338 400.744 383.65 400.888C383.962 401.008 384.442 401.068 385.09 401.068C385.162 401.068 385.198 401.14 385.198 401.284C385.198 401.428 385.162 401.5 385.09 401.5C384.538 401.5 384.094 401.488 383.758 401.464L381.814 401.428L379.87 401.464C379.534 401.488 379.078 401.5 378.502 401.5ZM381.526 383.068C381.046 383.068 380.662 382.936 380.374 382.672C380.086 382.408 379.942 382.036 379.942 381.556C379.942 381.076 380.086 380.704 380.374 380.44C380.662 380.176 381.046 380.044 381.526 380.044C382.006 380.044 382.378 380.176 382.642 380.44C382.906 380.704 383.038 381.076 383.038 381.556C383.038 382.036 382.906 382.408 382.642 382.672C382.378 382.936 382.006 383.068 381.526 383.068ZM387.878 401.5C387.806 401.5 387.77 401.428 387.77 401.284C387.77 401.14 387.806 401.068 387.878 401.068C388.526 401.068 389.006 401.008 389.318 400.888C389.63 400.744 389.846 400.504 389.966 400.168C390.086 399.808 390.146 399.28 390.146 398.584V379.972C390.146 379.108 390.062 378.484 389.894 378.1C389.726 377.716 389.426 377.524 388.994 377.524C388.634 377.524 388.082 377.692 387.338 378.028H387.266C387.194 378.028 387.134 377.968 387.086 377.848C387.062 377.728 387.086 377.656 387.158 377.632L391.766 375.436C391.814 375.412 391.874 375.4 391.946 375.4C392.018 375.4 392.09 375.436 392.162 375.508C392.234 375.556 392.27 375.616 392.27 375.688V398.584C392.27 399.28 392.318 399.796 392.414 400.132C392.534 400.468 392.75 400.708 393.062 400.852C393.374 400.996 393.854 401.068 394.502 401.068C394.574 401.068 394.61 401.14 394.61 401.284C394.61 401.428 394.574 401.5 394.502 401.5C393.974 401.5 393.542 401.488 393.206 401.464L391.189 401.428L389.246 401.464C388.91 401.488 388.454 401.5 387.878 401.5ZM404.035 401.968C402.643 401.968 401.407 401.632 400.327 400.96C399.271 400.264 398.455 399.34 397.879 398.188C397.303 397.012 397.015 395.74 397.015 394.372C397.015 392.812 397.387 391.492 398.131 390.412C398.899 389.308 399.871 388.492 401.047 387.964C402.247 387.412 403.459 387.136 404.683 387.136C406.099 387.136 407.335 387.484 408.391 388.18C409.447 388.876 410.251 389.8 410.803 390.952C411.379 392.08 411.667 393.28 411.667 394.552C411.667 396.04 411.319 397.348 410.623 398.476C409.927 399.58 408.991 400.444 407.815 401.068C406.663 401.668 405.403 401.968 404.035 401.968ZM405.079 401.284C406.399 401.284 407.419 400.816 408.139 399.88C408.859 398.944 409.219 397.504 409.219 395.56C409.219 394.072 408.967 392.74 408.463 391.564C407.983 390.388 407.311 389.476 406.447 388.828C405.583 388.156 404.599 387.82 403.495 387.82C402.199 387.82 401.191 388.288 400.471 389.224C399.775 390.16 399.427 391.504 399.427 393.256C399.427 394.72 399.667 396.064 400.147 397.288C400.627 398.512 401.299 399.484 402.163 400.204C403.027 400.924 403.999 401.284 405.079 401.284ZM416.617 398.944C417.337 398.944 417.901 399.22 418.309 399.772C418.717 400.3 418.921 401.08 418.921 402.112C418.921 403.192 418.693 404.2 418.237 405.136C417.781 406.096 417.109 407.056 416.221 408.016C416.197 408.04 416.161 408.052 416.113 408.052C416.041 408.052 415.981 408.016 415.933 407.944C415.885 407.872 415.885 407.812 415.933 407.764C416.461 407.02 416.821 406.312 417.013 405.64C417.205 404.968 417.301 404.212 417.301 403.372C417.301 402.724 417.205 402.196 417.013 401.788C416.845 401.404 416.605 401.068 416.293 400.78L417.661 400.528C417.685 400.936 417.577 401.248 417.337 401.464C417.097 401.68 416.785 401.788 416.401 401.788C415.945 401.788 415.585 401.668 415.321 401.428C415.081 401.164 414.961 400.816 414.961 400.384C414.961 399.424 415.513 398.944 416.617 398.944ZM440.667 401.5C440.595 401.5 440.559 401.428 440.559 401.284C440.559 401.14 440.595 401.068 440.667 401.068C441.315 401.068 441.795 401.008 442.107 400.888C442.419 400.744 442.623 400.504 442.719 400.168C442.839 399.832 442.899 399.304 442.899 398.584V392.752C442.899 391.312 442.623 390.268 442.071 389.62C441.543 388.948 440.715 388.612 439.587 388.612C438.699 388.612 437.799 388.888 436.887 389.44C435.999 389.992 435.231 390.748 434.583 391.708L434.439 391.276C435.495 389.86 436.539 388.816 437.571 388.144C438.603 387.472 439.671 387.136 440.775 387.136C442.095 387.136 443.115 387.52 443.835 388.288C444.579 389.032 444.951 390.112 444.951 391.528V398.584C444.951 399.304 444.999 399.832 445.095 400.168C445.215 400.504 445.431 400.744 445.743 400.888C446.055 401.008 446.535 401.068 447.183 401.068C447.255 401.068 447.291 401.14 447.291 401.284C447.291 401.428 447.255 401.5 447.183 401.5C446.631 401.5 446.199 401.488 445.887 401.464L443.943 401.428L441.963 401.464C441.651 401.488 441.219 401.5 440.667 401.5ZM430.983 401.5C430.911 401.5 430.875 401.428 430.875 401.284C430.875 401.14 430.911 401.068 430.983 401.068C431.631 401.068 432.111 401.008 432.423 400.888C432.735 400.744 432.939 400.504 433.035 400.168C433.155 399.832 433.215 399.304 433.215 398.584V391.456C433.215 390.64 433.119 390.052 432.927 389.692C432.735 389.332 432.411 389.152 431.955 389.152C431.571 389.152 430.923 389.332 430.011 389.692H429.939C429.843 389.692 429.771 389.644 429.723 389.548C429.699 389.428 429.735 389.344 429.831 389.296L434.007 387.316C434.055 387.292 434.127 387.28 434.223 387.28C434.439 387.28 434.667 387.556 434.907 388.108C435.147 388.66 435.267 389.368 435.267 390.232V398.584C435.267 399.304 435.315 399.832 435.411 400.168C435.531 400.504 435.747 400.744 436.059 400.888C436.371 401.008 436.851 401.068 437.499 401.068C437.571 401.068 437.607 401.14 437.607 401.284C437.607 401.428 437.571 401.5 437.499 401.5C436.947 401.5 436.515 401.488 436.203 401.464L434.259 401.428L432.279 401.464C431.967 401.488 431.535 401.5 430.983 401.5ZM456.277 401.968C454.885 401.968 453.649 401.632 452.569 400.96C451.513 400.264 450.697 399.34 450.121 398.188C449.545 397.012 449.257 395.74 449.257 394.372C449.257 392.812 449.629 391.492 450.373 390.412C451.141 389.308 452.113 388.492 453.289 387.964C454.489 387.412 455.701 387.136 456.925 387.136C458.341 387.136 459.577 387.484 460.633 388.18C461.689 388.876 462.493 389.8 463.045 390.952C463.621 392.08 463.909 393.28 463.909 394.552C463.909 396.04 463.561 397.348 462.865 398.476C462.169 399.58 461.233 400.444 460.057 401.068C458.905 401.668 457.645 401.968 456.277 401.968ZM457.321 401.284C458.641 401.284 459.661 400.816 460.381 399.88C461.101 398.944 461.461 397.504 461.461 395.56C461.461 394.072 461.209 392.74 460.705 391.564C460.225 390.388 459.553 389.476 458.689 388.828C457.825 388.156 456.841 387.82 455.737 387.82C454.441 387.82 453.433 388.288 452.713 389.224C452.017 390.16 451.669 391.504 451.669 393.256C451.669 394.72 451.909 396.064 452.389 397.288C452.869 398.512 453.541 399.484 454.405 400.204C455.269 400.924 456.241 401.284 457.321 401.284ZM468.788 389.8C468.788 390.64 469.064 391.312 469.616 391.816C470.168 392.296 470.984 392.812 472.064 393.364C472.904 393.796 473.552 394.168 474.008 394.48C474.488 394.792 474.896 395.2 475.232 395.704C475.568 396.208 475.736 396.82 475.736 397.54C475.736 398.764 475.28 399.796 474.368 400.636C473.456 401.476 472.22 401.896 470.66 401.896C469.388 401.896 468.236 401.536 467.204 400.816C467.06 400.72 466.988 400.576 466.988 400.384L466.916 397.576C466.916 397.504 466.976 397.468 467.096 397.468C467.24 397.444 467.324 397.468 467.348 397.54C467.804 398.764 468.392 399.688 469.112 400.312C469.856 400.912 470.708 401.212 471.668 401.212C472.412 401.212 472.988 401.044 473.396 400.708C473.828 400.348 474.044 399.82 474.044 399.124C474.044 398.452 473.888 397.888 473.576 397.432C473.288 396.952 472.928 396.58 472.496 396.316C472.064 396.028 471.476 395.692 470.732 395.308C469.94 394.924 469.304 394.576 468.824 394.264C468.368 393.952 467.972 393.544 467.636 393.04C467.324 392.536 467.168 391.912 467.168 391.168C467.168 389.872 467.648 388.888 468.608 388.216C469.592 387.52 470.744 387.172 472.064 387.172C473.024 387.172 473.9 387.352 474.691 387.712C474.836 387.76 474.92 387.82 474.944 387.892C474.992 387.94 475.016 388.012 475.016 388.108C475.016 388.588 475.004 388.96 474.98 389.224L474.944 390.736C474.944 390.784 474.872 390.808 474.728 390.808C474.584 390.808 474.512 390.784 474.512 390.736C474.512 389.968 474.104 389.296 473.288 388.72C472.496 388.144 471.656 387.856 470.768 387.856C470.144 387.856 469.652 388.024 469.292 388.36C468.956 388.672 468.788 389.152 468.788 389.8ZM480.741 389.8C480.741 390.64 481.017 391.312 481.569 391.816C482.121 392.296 482.937 392.812 484.017 393.364C484.857 393.796 485.505 394.168 485.961 394.48C486.441 394.792 486.849 395.2 487.185 395.704C487.521 396.208 487.689 396.82 487.689 397.54C487.689 398.764 487.233 399.796 486.321 400.636C485.409 401.476 484.173 401.896 482.613 401.896C481.341 401.896 480.189 401.536 479.157 400.816C479.013 400.72 478.941 400.576 478.941 400.384L478.869 397.576C478.869 397.504 478.929 397.468 479.049 397.468C479.193 397.444 479.277 397.468 479.301 397.54C479.757 398.764 480.345 399.688 481.065 400.312C481.809 400.912 482.661 401.212 483.621 401.212C484.365 401.212 484.941 401.044 485.349 400.708C485.781 400.348 485.997 399.82 485.997 399.124C485.997 398.452 485.841 397.888 485.529 397.432C485.241 396.952 484.881 396.58 484.449 396.316C484.017 396.028 483.429 395.692 482.685 395.308C481.893 394.924 481.257 394.576 480.777 394.264C480.321 393.952 479.925 393.544 479.589 393.04C479.277 392.536 479.121 391.912 479.121 391.168C479.121 389.872 479.601 388.888 480.561 388.216C481.545 387.52 482.697 387.172 484.017 387.172C484.977 387.172 485.853 387.352 486.645 387.712C486.789 387.76 486.873 387.82 486.897 387.892C486.945 387.94 486.969 388.012 486.969 388.108C486.969 388.588 486.957 388.96 486.933 389.224L486.897 390.736C486.897 390.784 486.825 390.808 486.681 390.808C486.537 390.808 486.465 390.784 486.465 390.736C486.465 389.968 486.057 389.296 485.241 388.72C484.449 388.144 483.609 387.856 482.721 387.856C482.097 387.856 481.605 388.024 481.245 388.36C480.909 388.672 480.741 389.152 480.741 389.8ZM497.621 401.968C496.229 401.968 494.993 401.632 493.913 400.96C492.857 400.264 492.041 399.34 491.465 398.188C490.889 397.012 490.601 395.74 490.601 394.372C490.601 392.812 490.973 391.492 491.717 390.412C492.485 389.308 493.457 388.492 494.633 387.964C495.833 387.412 497.045 387.136 498.269 387.136C499.685 387.136 500.921 387.484 501.977 388.18C503.033 388.876 503.837 389.8 504.389 390.952C504.965 392.08 505.253 393.28 505.253 394.552C505.253 396.04 504.905 397.348 504.209 398.476C503.513 399.58 502.577 400.444 501.401 401.068C500.249 401.668 498.989 401.968 497.621 401.968ZM498.665 401.284C499.985 401.284 501.005 400.816 501.725 399.88C502.445 398.944 502.805 397.504 502.805 395.56C502.805 394.072 502.553 392.74 502.049 391.564C501.569 390.388 500.897 389.476 500.033 388.828C499.169 388.156 498.185 387.82 497.081 387.82C495.785 387.82 494.777 388.288 494.057 389.224C493.361 390.16 493.013 391.504 493.013 393.256C493.013 394.72 493.253 396.064 493.733 397.288C494.213 398.512 494.885 399.484 495.749 400.204C496.613 400.924 497.585 401.284 498.665 401.284ZM516.121 411.4C516.049 411.4 516.013 411.328 516.013 411.184C516.013 411.04 516.049 410.968 516.121 410.968C516.769 410.968 517.249 410.896 517.561 410.752C517.873 410.632 518.089 410.404 518.209 410.068C518.329 409.732 518.389 409.204 518.389 408.484V391.564C518.389 390.7 518.293 390.088 518.101 389.728C517.909 389.344 517.573 389.152 517.093 389.152C516.565 389.152 515.929 389.32 515.185 389.656L515.113 389.692C515.017 389.692 514.957 389.632 514.933 389.512C514.885 389.392 514.897 389.308 514.969 389.26L518.965 387.352C519.013 387.328 519.097 387.316 519.217 387.316C519.553 387.316 519.829 387.604 520.045 388.18C520.285 388.732 520.405 389.512 520.405 390.52V408.484C520.405 409.204 520.489 409.732 520.657 410.068C520.849 410.404 521.185 410.632 521.665 410.752C522.169 410.896 522.949 410.968 524.005 410.968C524.053 410.968 524.077 411.04 524.077 411.184C524.077 411.328 524.053 411.4 524.005 411.4C523.189 411.4 522.541 411.388 522.061 411.364L519.433 411.328L517.453 411.364C517.117 411.388 516.673 411.4 516.121 411.4ZM524.221 401.968C523.285 401.968 522.469 401.848 521.773 401.608C521.077 401.392 520.309 400.996 519.469 400.42L519.973 398.44C520.717 399.352 521.485 400.048 522.277 400.528C523.093 400.984 524.101 401.212 525.301 401.212C526.573 401.212 527.617 400.66 528.433 399.556C529.249 398.428 529.657 396.868 529.657 394.876C529.657 392.86 529.213 391.3 528.325 390.196C527.437 389.068 526.309 388.504 524.941 388.504C523.981 388.504 523.105 388.756 522.313 389.26C521.545 389.764 520.705 390.508 519.793 391.492L519.505 391.204C520.729 389.812 521.905 388.792 523.033 388.144C524.161 387.472 525.301 387.136 526.453 387.136C527.437 387.136 528.349 387.4 529.189 387.928C530.029 388.456 530.701 389.224 531.205 390.232C531.709 391.24 531.961 392.416 531.961 393.76C531.961 395.56 531.553 397.084 530.737 398.332C529.921 399.556 528.913 400.468 527.713 401.068C526.537 401.668 525.373 401.968 524.221 401.968ZM538.359 391.348C539.631 389.764 540.615 388.696 541.311 388.144C542.007 387.568 542.655 387.28 543.255 387.28C543.783 387.28 544.287 387.424 544.767 387.712C545.247 388 545.487 388.348 545.487 388.756C545.487 389.068 545.379 389.332 545.163 389.548C544.947 389.764 544.659 389.872 544.299 389.872C544.083 389.872 543.891 389.836 543.723 389.764C543.579 389.668 543.399 389.536 543.183 389.368C542.967 389.176 542.763 389.032 542.571 388.936C542.379 388.84 542.151 388.792 541.887 388.792C541.527 388.792 541.131 388.972 540.699 389.332C540.267 389.692 539.535 390.496 538.503 391.744L538.359 391.348ZM534.975 401.5C534.903 401.5 534.867 401.428 534.867 401.284C534.867 401.14 534.903 401.068 534.975 401.068C535.623 401.068 536.103 401.008 536.415 400.888C536.727 400.744 536.931 400.504 537.027 400.168C537.147 399.832 537.207 399.304 537.207 398.584V391.456C537.207 390.64 537.111 390.052 536.919 389.692C536.727 389.332 536.403 389.152 535.947 389.152C535.563 389.152 534.915 389.332 534.003 389.692H533.931C533.835 389.692 533.763 389.644 533.715 389.548C533.691 389.428 533.727 389.344 533.823 389.296L537.999 387.316C538.047 387.292 538.119 387.28 538.215 387.28C538.431 387.28 538.659 387.556 538.899 388.108C539.139 388.66 539.259 389.368 539.259 390.232V398.584C539.259 399.304 539.343 399.832 539.511 400.168C539.703 400.504 540.039 400.744 540.519 400.888C540.999 401.008 541.743 401.068 542.751 401.068C542.847 401.068 542.895 401.14 542.895 401.284C542.895 401.428 542.847 401.5 542.751 401.5C541.983 401.5 541.371 401.488 540.915 401.464L538.251 401.428L536.271 401.464C535.959 401.488 535.527 401.5 534.975 401.5ZM554.363 401.968C552.971 401.968 551.735 401.632 550.655 400.96C549.599 400.264 548.783 399.34 548.207 398.188C547.631 397.012 547.343 395.74 547.343 394.372C547.343 392.812 547.715 391.492 548.459 390.412C549.227 389.308 550.199 388.492 551.375 387.964C552.575 387.412 553.787 387.136 555.011 387.136C556.427 387.136 557.663 387.484 558.719 388.18C559.775 388.876 560.579 389.8 561.131 390.952C561.707 392.08 561.995 393.28 561.995 394.552C561.995 396.04 561.647 397.348 560.951 398.476C560.255 399.58 559.319 400.444 558.143 401.068C556.991 401.668 555.731 401.968 554.363 401.968ZM555.407 401.284C556.727 401.284 557.747 400.816 558.467 399.88C559.187 398.944 559.547 397.504 559.547 395.56C559.547 394.072 559.295 392.74 558.791 391.564C558.311 390.388 557.639 389.476 556.775 388.828C555.911 388.156 554.927 387.82 553.823 387.82C552.527 387.82 551.519 388.288 550.799 389.224C550.103 390.16 549.755 391.504 549.755 393.256C549.755 394.72 549.995 396.064 550.475 397.288C550.955 398.512 551.627 399.484 552.491 400.204C553.355 400.924 554.327 401.284 555.407 401.284ZM564.425 411.4C564.353 411.4 564.317 411.328 564.317 411.184C564.317 411.04 564.353 410.968 564.425 410.968C565.073 410.968 565.553 410.896 565.865 410.752C566.177 410.632 566.393 410.404 566.513 410.068C566.633 409.732 566.693 409.204 566.693 408.484V391.564C566.693 390.7 566.597 390.088 566.405 389.728C566.213 389.344 565.877 389.152 565.397 389.152C564.869 389.152 564.233 389.32 563.489 389.656L563.417 389.692C563.321 389.692 563.261 389.632 563.237 389.512C563.189 389.392 563.201 389.308 563.273 389.26L567.269 387.352C567.317 387.328 567.401 387.316 567.521 387.316C567.857 387.316 568.133 387.604 568.349 388.18C568.589 388.732 568.709 389.512 568.709 390.52V408.484C568.709 409.204 568.793 409.732 568.961 410.068C569.153 410.404 569.489 410.632 569.969 410.752C570.473 410.896 571.253 410.968 572.309 410.968C572.357 410.968 572.381 411.04 572.381 411.184C572.381 411.328 572.357 411.4 572.309 411.4C571.493 411.4 570.845 411.388 570.365 411.364L567.737 411.328L565.757 411.364C565.421 411.388 564.977 411.4 564.425 411.4ZM572.525 401.968C571.589 401.968 570.773 401.848 570.077 401.608C569.381 401.392 568.613 400.996 567.773 400.42L568.277 398.44C569.021 399.352 569.789 400.048 570.581 400.528C571.397 400.984 572.405 401.212 573.605 401.212C574.877 401.212 575.921 400.66 576.737 399.556C577.553 398.428 577.961 396.868 577.961 394.876C577.961 392.86 577.517 391.3 576.629 390.196C575.741 389.068 574.613 388.504 573.245 388.504C572.285 388.504 571.409 388.756 570.617 389.26C569.849 389.764 569.009 390.508 568.097 391.492L567.809 391.204C569.033 389.812 570.209 388.792 571.337 388.144C572.465 387.472 573.605 387.136 574.757 387.136C575.741 387.136 576.653 387.4 577.493 387.928C578.333 388.456 579.005 389.224 579.509 390.232C580.013 391.24 580.265 392.416 580.265 393.76C580.265 395.56 579.857 397.084 579.041 398.332C578.225 399.556 577.217 400.468 576.017 401.068C574.841 401.668 573.677 401.968 572.525 401.968ZM589.976 401.968C588.584 401.968 587.348 401.632 586.268 400.96C585.212 400.264 584.396 399.34 583.82 398.188C583.244 397.012 582.956 395.74 582.956 394.372C582.956 392.812 583.328 391.492 584.072 390.412C584.84 389.308 585.812 388.492 586.988 387.964C588.188 387.412 589.4 387.136 590.624 387.136C592.04 387.136 593.276 387.484 594.332 388.18C595.388 388.876 596.192 389.8 596.744 390.952C597.32 392.08 597.608 393.28 597.608 394.552C597.608 396.04 597.26 397.348 596.564 398.476C595.868 399.58 594.932 400.444 593.756 401.068C592.604 401.668 591.344 401.968 589.976 401.968ZM591.02 401.284C592.34 401.284 593.36 400.816 594.08 399.88C594.8 398.944 595.16 397.504 595.16 395.56C595.16 394.072 594.908 392.74 594.404 391.564C593.924 390.388 593.252 389.476 592.388 388.828C591.524 388.156 590.54 387.82 589.436 387.82C588.14 387.82 587.132 388.288 586.412 389.224C585.716 390.16 585.368 391.504 585.368 393.256C585.368 394.72 585.608 396.064 586.088 397.288C586.568 398.512 587.24 399.484 588.104 400.204C588.968 400.924 589.94 401.284 591.02 401.284ZM590.228 384.436C590.228 384.484 590.18 384.508 590.084 384.508C590.012 384.508 589.94 384.496 589.868 384.472C589.82 384.424 589.808 384.388 589.832 384.364L591.74 375.724C591.764 375.628 592.004 375.52 592.46 375.4C592.916 375.256 593.3 375.184 593.612 375.184C593.828 375.184 593.924 375.232 593.9 375.328L590.228 384.436ZM602.487 389.8C602.487 390.64 602.763 391.312 603.315 391.816C603.867 392.296 604.683 392.812 605.763 393.364C606.603 393.796 607.251 394.168 607.707 394.48C608.187 394.792 608.595 395.2 608.931 395.704C609.267 396.208 609.435 396.82 609.435 397.54C609.435 398.764 608.979 399.796 608.067 400.636C607.155 401.476 605.919 401.896 604.359 401.896C603.087 401.896 601.935 401.536 600.903 400.816C600.759 400.72 600.687 400.576 600.687 400.384L600.615 397.576C600.615 397.504 600.675 397.468 600.795 397.468C600.939 397.444 601.023 397.468 601.047 397.54C601.503 398.764 602.091 399.688 602.811 400.312C603.555 400.912 604.407 401.212 605.367 401.212C606.111 401.212 606.687 401.044 607.095 400.708C607.527 400.348 607.743 399.82 607.743 399.124C607.743 398.452 607.587 397.888 607.275 397.432C606.987 396.952 606.627 396.58 606.195 396.316C605.763 396.028 605.175 395.692 604.431 395.308C603.639 394.924 603.003 394.576 602.523 394.264C602.067 393.952 601.671 393.544 601.335 393.04C601.023 392.536 600.867 391.912 600.867 391.168C600.867 389.872 601.347 388.888 602.307 388.216C603.291 387.52 604.443 387.172 605.763 387.172C606.723 387.172 607.599 387.352 608.391 387.712C608.535 387.76 608.619 387.82 608.643 387.892C608.691 387.94 608.715 388.012 608.715 388.108C608.715 388.588 608.703 388.96 608.679 389.224L608.643 390.736C608.643 390.784 608.571 390.808 608.427 390.808C608.283 390.808 608.211 390.784 608.211 390.736C608.211 389.968 607.803 389.296 606.987 388.72C606.195 388.144 605.355 387.856 604.467 387.856C603.843 387.856 603.351 388.024 602.991 388.36C602.655 388.672 602.487 389.152 602.487 389.8ZM612.959 401.5C612.911 401.5 612.887 401.428 612.887 401.284C612.887 401.14 612.911 401.068 612.959 401.068C613.607 401.068 614.087 401.008 614.399 400.888C614.735 400.744 614.963 400.504 615.083 400.168C615.203 399.832 615.263 399.304 615.263 398.584V391.852C615.263 390.988 615.167 390.364 614.975 389.98C614.807 389.596 614.507 389.404 614.075 389.404C613.643 389.404 613.103 389.572 612.455 389.908H612.419C612.323 389.908 612.251 389.848 612.203 389.728C612.155 389.608 612.167 389.524 612.239 389.476L616.919 387.316L617.063 387.28C617.111 387.28 617.171 387.316 617.243 387.388C617.315 387.436 617.351 387.496 617.351 387.568C617.351 387.736 617.339 388.216 617.315 389.008C617.291 389.8 617.279 390.736 617.279 391.816V398.584C617.279 399.304 617.339 399.832 617.459 400.168C617.579 400.504 617.795 400.744 618.107 400.888C618.419 401.008 618.899 401.068 619.547 401.068C619.619 401.068 619.655 401.14 619.655 401.284C619.655 401.428 619.619 401.5 619.547 401.5C618.995 401.5 618.551 401.488 618.215 401.464L616.271 401.428L614.327 401.464C613.991 401.488 613.535 401.5 612.959 401.5ZM615.983 383.068C615.503 383.068 615.119 382.936 614.831 382.672C614.543 382.408 614.399 382.036 614.399 381.556C614.399 381.076 614.543 380.704 614.831 380.44C615.119 380.176 615.503 380.044 615.983 380.044C616.463 380.044 616.835 380.176 617.099 380.44C617.363 380.704 617.495 381.076 617.495 381.556C617.495 382.036 617.363 382.408 617.099 382.672C616.835 382.936 616.463 383.068 615.983 383.068ZM627.663 401.932C626.655 401.932 625.827 401.704 625.179 401.248C624.531 400.792 624.207 400.036 624.207 398.98V390.52C624.207 389.896 624.159 389.452 624.063 389.188C623.991 388.924 623.835 388.756 623.595 388.684C623.355 388.588 622.947 388.54 622.371 388.54C622.275 388.54 622.227 388.468 622.227 388.324C622.227 388.156 622.275 388.072 622.371 388.072C623.331 388.048 624.111 387.796 624.711 387.316C625.311 386.812 625.659 386.152 625.755 385.336C625.755 385.264 625.851 385.228 626.043 385.228C626.211 385.228 626.295 385.264 626.295 385.336V397.756C626.295 399.7 627.243 400.672 629.139 400.672C630.243 400.672 631.203 400.336 632.019 399.664L632.091 399.628C632.187 399.628 632.259 399.688 632.307 399.808C632.355 399.904 632.343 399.976 632.271 400.024C631.383 400.72 630.579 401.212 629.859 401.5C629.163 401.788 628.431 401.932 627.663 401.932ZM631.155 389.368C629.619 388.984 627.795 388.792 625.683 388.792V388C627.195 388 629.067 387.88 631.299 387.64C631.347 387.64 631.395 387.736 631.443 387.928C631.515 388.096 631.551 388.288 631.551 388.504C631.551 388.696 631.503 388.9 631.407 389.116C631.335 389.308 631.251 389.392 631.155 389.368ZM641.375 401.968C639.983 401.968 638.747 401.632 637.667 400.96C636.611 400.264 635.795 399.34 635.219 398.188C634.643 397.012 634.355 395.74 634.355 394.372C634.355 392.812 634.727 391.492 635.471 390.412C636.239 389.308 637.211 388.492 638.387 387.964C639.587 387.412 640.799 387.136 642.023 387.136C643.439 387.136 644.675 387.484 645.731 388.18C646.787 388.876 647.591 389.8 648.143 390.952C648.719 392.08 649.007 393.28 649.007 394.552C649.007 396.04 648.659 397.348 647.963 398.476C647.267 399.58 646.331 400.444 645.155 401.068C644.003 401.668 642.743 401.968 641.375 401.968ZM642.419 401.284C643.739 401.284 644.759 400.816 645.479 399.88C646.199 398.944 646.559 397.504 646.559 395.56C646.559 394.072 646.307 392.74 645.803 391.564C645.323 390.388 644.651 389.476 643.787 388.828C642.923 388.156 641.939 387.82 640.835 387.82C639.539 387.82 638.531 388.288 637.811 389.224C637.115 390.16 636.767 391.504 636.767 393.256C636.767 394.72 637.007 396.064 637.487 397.288C637.967 398.512 638.639 399.484 639.503 400.204C640.367 400.924 641.339 401.284 642.419 401.284ZM653.849 401.896C653.369 401.896 652.985 401.752 652.697 401.464C652.409 401.176 652.265 400.804 652.265 400.348C652.265 399.892 652.409 399.532 652.697 399.268C652.985 398.98 653.369 398.836 653.849 398.836C654.353 398.836 654.737 398.968 655.001 399.232C655.265 399.496 655.397 399.868 655.397 400.348C655.397 400.828 655.265 401.212 655.001 401.5C654.737 401.764 654.353 401.896 653.849 401.896Z" fill="#BC5D43"/>
</svg>
